<?xml version="1.0" encoding="utf-8"?>
<!-- Generator: Adobe Illustrator 15.1.0, SVG Export Plug-In . SVG Version: 6.00 Build 0)  -->
<!DOCTYPE svg PUBLIC "-//W3C//DTD SVG 1.1//EN" "http://www.w3.org/Graphics/SVG/1.1/DTD/svg11.dtd">
<svg version="1.1" id="Layer_1" xmlns="http://www.w3.org/2000/svg" xmlns:xlink="http://www.w3.org/1999/xlink" x="0px" y="0px"
	 width="195.553px" height="142.116px" viewBox="0 0 195.553 142.116" enable-background="new 0 0 195.553 142.116"
	 xml:space="preserve">
<g>
	<path d="M29.504,75.997c0,4.368-0.984,7.856-2.951,10.466c-1.967,2.608-4.624,3.912-7.969,3.912c-2.583,0-4.706-0.944-6.37-2.834
		v13.131H3.452V61.723h8.19l0.26,2.6c1.681-2.08,3.891-3.12,6.63-3.12c3.467,0,6.162,1.278,8.086,3.835
		c1.924,2.557,2.886,6.071,2.886,10.543V75.997z M20.742,75.451c0-4.992-1.456-7.488-4.368-7.488c-2.08,0-3.467,0.746-4.16,2.236
		v11.076c0.763,1.56,2.167,2.34,4.212,2.34c2.791,0,4.229-2.409,4.316-7.228V75.451z"/>
	<path d="M50.382,69.653l-2.886-0.208c-2.756,0-4.524,0.867-5.304,2.6v17.811H33.43V61.723h8.216l0.286,3.614
		c1.473-2.756,3.527-4.134,6.162-4.134c0.936,0,1.75,0.104,2.444,0.312L50.382,69.653z"/>
	<path d="M52.437,75.529c0-2.808,0.546-5.308,1.638-7.501c1.092-2.192,2.66-3.878,4.706-5.057c2.045-1.179,4.446-1.768,7.202-1.768
		c4.212,0,7.531,1.305,9.958,3.913c2.426,2.609,3.64,6.158,3.64,10.647v0.312c0,4.386-1.218,7.865-3.653,10.439
		c-2.436,2.574-5.733,3.86-9.893,3.86c-4.004,0-7.22-1.199-9.646-3.601c-2.427-2.4-3.736-5.655-3.926-9.763L52.437,75.529z
		 M61.199,76.075c0,2.601,0.407,4.507,1.222,5.72c0.815,1.214,2.019,1.82,3.614,1.82c3.12,0,4.714-2.4,4.784-7.202v-0.884
		c0-5.044-1.612-7.566-4.836-7.566c-2.929,0-4.515,2.176-4.758,6.526L61.199,76.075z"/>
	<path d="M82.337,75.529c0-2.808,0.546-5.308,1.638-7.501c1.092-2.192,2.66-3.878,4.706-5.057c2.045-1.179,4.446-1.768,7.202-1.768
		c4.212,0,7.531,1.305,9.958,3.913c2.427,2.609,3.641,6.158,3.641,10.647v0.312c0,4.386-1.219,7.865-3.653,10.439
		c-2.436,2.574-5.733,3.86-9.893,3.86c-4.004,0-7.22-1.199-9.646-3.601c-2.427-2.4-3.736-5.655-3.926-9.763L82.337,75.529z
		 M91.099,76.075c0,2.601,0.407,4.507,1.222,5.72c0.815,1.214,2.019,1.82,3.614,1.82c3.12,0,4.714-2.4,4.784-7.202v-0.884
		c0-5.044-1.612-7.566-4.836-7.566c-2.929,0-4.515,2.176-4.758,6.526L91.099,76.075z"/>
	<path d="M139.459,75.997c0,4.368-0.984,7.856-2.951,10.466c-1.968,2.608-4.624,3.912-7.969,3.912c-2.583,0-4.706-0.944-6.37-2.834
		v13.131h-8.762V61.723h8.189l0.26,2.6c1.682-2.08,3.892-3.12,6.631-3.12c3.466,0,6.162,1.278,8.086,3.835s2.886,6.071,2.886,10.543
		V75.997z M130.697,75.451c0-4.992-1.456-7.488-4.368-7.488c-2.08,0-3.467,0.746-4.16,2.236v11.076
		c0.763,1.56,2.166,2.34,4.212,2.34c2.791,0,4.229-2.409,4.316-7.228V75.451z"/>
	<path d="M151.888,64.739c1.872-2.357,4.264-3.536,7.176-3.536c3.103,0,5.442,0.919,7.021,2.756c1.576,1.838,2.383,4.55,2.418,8.139
		v17.758h-8.788v-17.55c0-1.491-0.304-2.587-0.91-3.289c-0.607-0.702-1.639-1.054-3.095-1.054c-1.803,0-3.076,0.572-3.821,1.717
		v20.176h-8.763V49.918h8.763V64.739z"/>
</g>
<g>
	<path d="M19.776,127.97c0-3.096-2.64-5.201-7.92-6.317c-3.174-0.675-5.382-1.544-6.623-2.604c-1.242-1.061-1.862-2.518-1.862-4.372
		c0-1.87,0.79-3.41,2.369-4.62c1.58-1.21,3.634-1.814,6.164-1.814c2.75,0,4.958,0.656,6.623,1.968
		c1.666,1.313,2.499,3.084,2.499,5.315h-1.296c0-1.713-0.723-3.143-2.168-4.29c-1.446-1.146-3.332-1.721-5.657-1.721
		c-2.231,0-4,0.487-5.304,1.462c-1.304,0.974-1.956,2.191-1.956,3.653c0,1.146,0.243,2.047,0.73,2.698
		c0.487,0.652,1.281,1.242,2.381,1.768c1.1,0.527,2.703,1.034,4.808,1.521c2.106,0.487,3.771,1.061,4.997,1.721
		s2.113,1.442,2.664,2.346c0.55,0.903,0.825,2.008,0.825,3.312c0,2.012-0.825,3.63-2.475,4.855s-3.811,1.839-6.482,1.839
		c-2.86,0-5.166-0.648-6.918-1.945c-1.752-1.296-2.628-2.966-2.628-5.009h1.273c0.125,1.792,0.916,3.187,2.369,4.185
		c1.453,0.998,3.421,1.496,5.904,1.496c2.278,0,4.128-0.53,5.551-1.591C19.064,130.763,19.776,129.479,19.776,127.97z"/>
	<path d="M24.209,120.969c0-2.436,0.467-4.623,1.402-6.564c0.935-1.94,2.254-3.453,3.96-4.537c1.705-1.084,3.633-1.626,5.787-1.626
		c2.137,0,4.054,0.526,5.751,1.579c1.697,1.053,3.021,2.546,3.972,4.479s1.434,4.109,1.45,6.529v1.131
		c0,2.451-0.464,4.644-1.391,6.576c-0.927,1.933-2.243,3.441-3.948,4.525c-1.705,1.085-3.634,1.627-5.787,1.627
		s-4.082-0.534-5.787-1.604c-1.705-1.068-3.029-2.564-3.972-4.49c-0.943-1.924-1.422-4.089-1.438-6.493V120.969z M25.481,121.959
		c0,2.121,0.42,4.066,1.261,5.834c0.84,1.768,2.011,3.146,3.512,4.137c1.5,0.989,3.217,1.484,5.15,1.484
		c2.907,0,5.276-1.092,7.106-3.276c1.831-2.184,2.746-4.997,2.746-8.438v-0.731c0-2.089-0.424-4.022-1.273-5.798
		c-0.848-1.775-2.023-3.162-3.523-4.16c-1.501-0.998-3.202-1.497-5.103-1.497c-2.908,0-5.28,1.107-7.119,3.323
		s-2.758,5.006-2.758,8.368V121.959z"/>
	<path d="M52.708,134.216v-24.23h-4.431v-1.273h4.431v-3.724c0.016-2.357,0.609-4.191,1.78-5.504
		c1.17-1.312,2.801-1.968,4.891-1.968c1.163,0,2.169,0.134,3.017,0.4l-0.188,1.226c-0.817-0.235-1.752-0.354-2.805-0.354
		c-1.682,0-3.005,0.546-3.972,1.638c-0.966,1.093-1.45,2.645-1.45,4.655v3.63h6.741v1.273H53.98v24.23H52.708z"/>
	<path d="M66.899,101.831v6.882h5.798v1.273h-5.798v18.12c0,1.809,0.294,3.146,0.884,4.012s1.575,1.297,2.958,1.297
		c0.691,0,1.532-0.07,2.522-0.212l0.212,1.202c-0.519,0.188-1.406,0.283-2.664,0.283c-1.854,0-3.182-0.516-3.983-1.546
		s-1.21-2.654-1.226-4.872v-18.284h-4.714v-1.273h4.714v-6.882H66.899z"/>
	<path d="M81.963,126.838l1.391,5.492l7.472-23.618h1.296l7.425,23.618l1.438-5.492l5.186-18.126h1.485l-7.425,25.504h-1.272
		l-6.293-19.163l-1.202-4.572l-1.296,4.572l-6.199,19.163h-1.273l-7.401-25.504h1.461L81.963,126.838z"/>
	<path d="M128.47,134.216c-0.314-1.084-0.472-2.64-0.472-4.667c-1.006,1.635-2.381,2.899-4.125,3.795s-3.716,1.344-5.916,1.344
		c-2.357,0-4.255-0.641-5.692-1.921c-1.438-1.281-2.156-2.95-2.156-5.009c0-2.342,1.057-4.216,3.17-5.622s4.922-2.125,8.427-2.156
		h6.293v-3.725c0-2.137-0.672-3.795-2.016-4.974c-1.343-1.179-3.264-1.768-5.763-1.768c-2.326,0-4.267,0.598-5.822,1.791
		c-1.556,1.194-2.333,2.672-2.333,4.432l-1.272-0.047c0-2.074,0.911-3.834,2.733-5.28c1.823-1.445,4.055-2.168,6.694-2.168
		c2.75,0,4.934,0.688,6.553,2.063c1.618,1.375,2.451,3.312,2.498,5.81V128.3c0,2.797,0.221,4.698,0.66,5.704v0.212H128.47z
		 M117.957,133.415c2.389,0,4.443-0.533,6.164-1.603c1.721-1.068,3.013-2.569,3.877-4.502v-6.058h-5.893
		c-3.646,0-6.435,0.723-8.367,2.169c-1.572,1.178-2.357,2.647-2.357,4.407c0,1.556,0.62,2.876,1.862,3.96
		C114.484,132.873,116.056,133.415,117.957,133.415z"/>
	<path d="M146.786,109.656l-1.65-0.142c-2.169,0-3.983,0.703-5.445,2.107c-1.461,1.405-2.42,3.372-2.875,5.899v16.695h-1.273
		v-25.504h1.273v5.304c0.691-1.775,1.729-3.182,3.111-4.219s3.119-1.556,5.209-1.556c0.738,0,1.335,0.088,1.791,0.264
		L146.786,109.656z"/>
	<path d="M158.928,134.688c-2.06,0-3.948-0.554-5.669-1.662c-1.721-1.107-3.068-2.628-4.043-4.561s-1.461-4.078-1.461-6.436v-1.061
		c0-2.356,0.472-4.518,1.414-6.481c0.943-1.964,2.239-3.496,3.89-4.597c1.649-1.1,3.448-1.649,5.397-1.649
		c2.844,0,5.17,1.014,6.977,3.04c1.807,2.027,2.711,4.69,2.711,7.991v1.343h-19.116v1.389c0,2.07,0.437,3.988,1.309,5.752
		c0.872,1.765,2.074,3.149,3.606,4.153s3.193,1.505,4.985,1.505c1.712,0,3.17-0.284,4.372-0.854
		c1.202-0.569,2.267-1.447,3.193-2.634l0.896,0.637C165.487,133.313,162.667,134.688,158.928,134.688z M158.456,109.514
		c-2.483,0-4.589,0.924-6.317,2.77c-1.729,1.847-2.742,4.2-3.04,7.06h17.771v-0.307c0-1.729-0.365-3.335-1.096-4.82
		c-0.73-1.484-1.736-2.64-3.017-3.465C161.477,109.926,160.043,109.514,158.456,109.514z"/>
</g>
<polygon fill="none" stroke="#000000" stroke-width="2" stroke-miterlimit="10" points="194.553,35.031 174.996,46.323 
	155.437,35.031 155.437,12.447 174.996,1.155 194.553,12.447 "/>
</svg>
